<?xml version="1.0" encoding="UTF-8"?>
<!DOCTYPE svg PUBLIC "-//W3C//DTD SVG 1.1//EN" "http://www.w3.org/Graphics/SVG/1.1/DTD/svg11.dtd">
<svg version="1.2" width="172.77mm" height="172.77mm" viewBox="0 0 17277 17277" preserveAspectRatio="xMidYMid" fill-rule="evenodd" stroke-width="28.222" stroke-linejoin="round" xmlns="http://www.w3.org/2000/svg" xmlns:ooo="http://xml.openoffice.org/svg/export" xmlns:xlink="http://www.w3.org/1999/xlink" xmlns:presentation="http://sun.com/xmlns/staroffice/presentation" xmlns:smil="http://www.w3.org/2001/SMIL20/" xmlns:anim="urn:oasis:names:tc:opendocument:xmlns:animation:1.0" xmlns:svg="urn:oasis:names:tc:opendocument:xmlns:svg-compatible:1.0" xml:space="preserve">
 <defs class="ClipPathGroup">
  <clipPath id="presentation_clip_path" clipPathUnits="userSpaceOnUse">
   <rect x="0" y="0" width="17277" height="17277"/>
  </clipPath>
  <clipPath id="presentation_clip_path_shrink" clipPathUnits="userSpaceOnUse">
   <rect x="17" y="17" width="17243" height="17243"/>
  </clipPath>
 </defs>
 <defs class="TextShapeIndex">
  <g ooo:slide="id1" ooo:id-list="id3"/>
 </defs>
 <defs class="EmbeddedBulletChars">
  <g id="bullet-char-template-57356" transform="scale(0.00048828125,-0.00048828125)">
   <path d="M 580,1141 L 1163,571 580,0 -4,571 580,1141 Z"/>
  </g>
  <g id="bullet-char-template-57354" transform="scale(0.00048828125,-0.00048828125)">
   <path d="M 8,1128 L 1137,1128 1137,0 8,0 8,1128 Z"/>
  </g>
  <g id="bullet-char-template-10146" transform="scale(0.00048828125,-0.00048828125)">
   <path d="M 174,0 L 602,739 174,1481 1456,739 174,0 Z M 1358,739 L 309,1346 659,739 1358,739 Z"/>
  </g>
  <g id="bullet-char-template-10132" transform="scale(0.00048828125,-0.00048828125)">
   <path d="M 2015,739 L 1276,0 717,0 1260,543 174,543 174,936 1260,936 717,1481 1274,1481 2015,739 Z"/>
  </g>
  <g id="bullet-char-template-10007" transform="scale(0.00048828125,-0.00048828125)">
   <path d="M 0,-2 C -7,14 -16,27 -25,37 L 356,567 C 262,823 215,952 215,954 215,979 228,992 255,992 264,992 276,990 289,987 310,991 331,999 354,1012 L 381,999 492,748 772,1049 836,1024 860,1049 C 881,1039 901,1025 922,1006 886,937 835,863 770,784 769,783 710,716 594,584 L 774,223 C 774,196 753,168 711,139 L 727,119 C 717,90 699,76 672,76 641,76 570,178 457,381 L 164,-76 C 142,-110 111,-127 72,-127 30,-127 9,-110 8,-76 1,-67 -2,-52 -2,-32 -2,-23 -1,-13 0,-2 Z"/>
  </g>
  <g id="bullet-char-template-10004" transform="scale(0.00048828125,-0.00048828125)">
   <path d="M 285,-33 C 182,-33 111,30 74,156 52,228 41,333 41,471 41,549 55,616 82,672 116,743 169,778 240,778 293,778 328,747 346,684 L 369,508 C 377,444 397,411 428,410 L 1163,1116 C 1174,1127 1196,1133 1229,1133 1271,1133 1292,1118 1292,1087 L 1292,965 C 1292,929 1282,901 1262,881 L 442,47 C 390,-6 338,-33 285,-33 Z"/>
  </g>
  <g id="bullet-char-template-9679" transform="scale(0.00048828125,-0.00048828125)">
   <path d="M 813,0 C 632,0 489,54 383,161 276,268 223,411 223,592 223,773 276,916 383,1023 489,1130 632,1184 813,1184 992,1184 1136,1130 1245,1023 1353,916 1407,772 1407,592 1407,412 1353,268 1245,161 1136,54 992,0 813,0 Z"/>
  </g>
  <g id="bullet-char-template-8226" transform="scale(0.00048828125,-0.00048828125)">
   <path d="M 346,457 C 273,457 209,483 155,535 101,586 74,649 74,723 74,796 101,859 155,911 209,963 273,989 346,989 419,989 480,963 531,910 582,859 608,796 608,723 608,648 583,586 532,535 482,483 420,457 346,457 Z"/>
  </g>
  <g id="bullet-char-template-8211" transform="scale(0.00048828125,-0.00048828125)">
   <path d="M -4,459 L 1135,459 1135,606 -4,606 -4,459 Z"/>
  </g>
  <g id="bullet-char-template-61548" transform="scale(0.00048828125,-0.00048828125)">
   <path d="M 173,740 C 173,903 231,1043 346,1159 462,1274 601,1332 765,1332 928,1332 1067,1274 1183,1159 1299,1043 1357,903 1357,740 1357,577 1299,437 1183,322 1067,206 928,148 765,148 601,148 462,206 346,322 231,437 173,577 173,740 Z"/>
  </g>
 </defs>
 <g>
  <g id="id2" class="Master_Slide">
   <g id="bg-id2" class="Background"/>
   <g id="bo-id2" class="BackgroundObjects"/>
  </g>
 </g>
 <g class="SlideGroup">
  <g>
   <g id="container-id1">
    <g id="id1" class="Slide" clip-path="url(#presentation_clip_path)">
     <g class="Page">
      <g class="Graphic">
       <g id="id3">
        <rect class="BoundingBox" stroke="none" fill="none" x="-1072" y="2952" width="20525" height="13751"/>
        <defs>
         <clipPath id="clip_path_1" clipPathUnits="userSpaceOnUse">
          <path d="M -1072,2952 L 19452,2952 19452,16702 -1072,16702 -1072,2952 Z"/>
         </clipPath>
        </defs>
        <g clip-path="url(#clip_path_1)">
         <path fill="rgb(162,195,208)" stroke="none" d="M 6861,1143 C 6779,929 6720,706 6685,464 6650,222 6638,-39 6641,-316 6647,-592 6669,-881 6710,-1170 6317,-1123 5924,-1079 5519,-991 5110,-900 4689,-768 4268,-636 L 4375,-328 5022,-514 C 5066,-457 5088,-382 5076,-312 5066,-246 5022,-187 4988,-114 4956,-42 4934,49 4909,112 4884,175 4856,216 4821,247 L 4372,247 4127,744 C 4224,737 4318,731 4400,718 4482,706 4548,687 4617,665 4623,731 4617,797 4598,850 4579,904 4545,941 4504,982 4463,1026 4409,1070 4312,1124 4215,1177 4073,1237 3925,1281 L 3995,1853 C 4218,1796 4431,1696 4592,1579 4755,1463 4868,1325 4963,1168 5060,1011 5139,831 5195,646 L 6044,577 C 6060,728 6072,875 6072,995 6072,1111 6060,1199 6047,1284 L 6861,1143 6861,1143 Z M 5821,-152 C 5821,-127 5821,-86 5821,-45 L 5667,-26 C 5714,-111 5767,-190 5821,-272 5821,-250 5821,-224 5821,-209 5824,-190 5821,-177 5821,-152 Z"/>
         <path fill="rgb(250,164,51)" stroke="none" d="M 2172,4188 C 2241,4279 2432,4317 2612,4373 2788,4430 2954,4508 3133,4631 3313,4750 3501,4914 3621,5162 3740,5414 3790,5753 3822,6039 3850,6325 3859,6561 3932,6796 4004,7032 4142,7271 4318,7519 4491,7767 4702,8022 4947,8132 5192,8245 5472,8217 5717,8223 5962,8232 6170,8286 6289,8380 6408,8478 6440,8622 6522,8720 6600,8817 6729,8867 6842,8924 6952,8980 7043,9043 7128,9112 7138,9383 7153,9653 7175,9942 7197,10231 7226,10536 7229,10759 7229,10982 7207,11121 7163,11275 7122,11429 7065,11592 7065,11740 7065,11884 7119,12010 7134,12126 7150,12243 7128,12356 7112,12488 7097,12620 7090,12774 7062,12912 7031,13050 6977,13173 6930,13289 6883,13402 6842,13509 6767,13550 6691,13591 6581,13566 6478,13588 6371,13610 6270,13676 6223,13751 6176,13830 6182,13914 6254,13980 6327,14046 6462,14094 6588,14112 6710,14128 6820,14119 6921,14116 7021,14112 7112,14122 7182,14103 7251,14084 7298,14037 7329,13980 7398,13864 7420,13713 7398,13572 7543,13588 7684,13600 7816,13619 7945,13638 8065,13657 8156,13657 8250,13654 8323,13632 8389,13597 8455,13562 8511,13518 8521,13402 8530,13286 8483,13094 8473,12840 8464,12585 8492,12265 8521,12016 8552,11768 8583,11595 8574,11460 8568,11325 8517,11231 8489,11114 8461,10998 8458,10866 8439,10646 8417,10426 8379,10121 8335,9816 8389,9760 8455,9713 8574,9659 8693,9606 8866,9543 9096,9534 9325,9521 9614,9559 9869,9584 10123,9609 10347,9618 10623,9518 10900,9420 11227,9213 11541,9122 11855,9031 12154,9056 12289,9134 12424,9213 12396,9342 12440,9474 12484,9606 12597,9738 12704,9908 12808,10077 12905,10285 12977,10586 13047,10888 13094,11281 13125,11561 13153,11837 13163,12001 13166,12161 13053,12299 12940,12441 12814,12591 12688,12742 12553,12906 12462,12987 12371,13069 12330,13069 12261,13075 12195,13082 12107,13097 12041,13129 11978,13160 11940,13204 11918,13283 11896,13361 11887,13471 11934,13534 11978,13597 12072,13606 12166,13613 12261,13619 12355,13619 12446,13613 12484,13613 12522,13641 12512,13688 12503,13735 12449,13804 12449,13874 12449,13946 12503,14024 12606,14072 12707,14119 12858,14134 12999,14144 13141,14156 13276,14166 13323,14081 13370,13999 13333,13826 13342,13663 13351,13500 13408,13346 13474,13160 13540,12975 13619,12752 13688,12573 13757,12390 13817,12249 13873,12139 13933,12026 13989,11944 14055,11869 14121,11796 14194,11730 14203,11605 14213,11476 14156,11287 14121,11102 14087,10913 14068,10731 14037,10555 14005,10382 13958,10216 13955,10071 13952,9926 13996,9801 14002,9593 14008,9383 13980,9090 13999,8867 14015,8644 14074,8493 14103,8327 14134,8157 14134,7972 14115,7786 14165,7755 14231,7761 14301,7833 14370,7906 14439,8047 14483,8192 14527,8336 14549,8484 14568,8600 14587,8716 14602,8801 14637,8874 14671,8949 14725,9012 14785,9050 14841,9087 14904,9106 14986,9119 15067,9134 15171,9141 15272,9141 15265,9056 15240,8971 15193,8905 15149,8842 15086,8798 15008,8732 14929,8669 14832,8584 14734,8503 14700,8364 14665,8229 14631,8104 14596,7975 14568,7855 14514,7755 14461,7654 14385,7576 14235,7478 14084,7381 13854,7268 13685,7123 13518,6979 13411,6799 13251,6645 13091,6488 12880,6353 12720,6281 12559,6212 12449,6202 12336,6133 12226,6064 12113,5932 12003,5838 11893,5740 11786,5681 11664,5536 11544,5392 11412,5165 11202,5008 10991,4848 10702,4760 10441,4700 10183,4644 9954,4618 9825,4647 9696,4675 9665,4754 9605,4791 9545,4826 9451,4816 9366,4845 9281,4873 9203,4939 9133,5027 9067,5115 9011,5225 8979,5341 8888,5332 8797,5332 8684,5341 8574,5354 8442,5379 8272,5445 8103,5514 7895,5624 7684,5706 7477,5791 7266,5844 7053,5979 6839,6114 6619,6331 6412,6435 6201,6539 6000,6532 5818,6460 5635,6388 5475,6256 5330,5941 5189,5627 5063,5134 5010,4782 4956,4427 4972,4210 5019,4062 5066,3911 5142,3830 5239,3786 5167,3738 5091,3694 4997,3660 4906,3625 4799,3597 4708,3550 4617,3503 4545,3440 4431,3399 4318,3361 4164,3342 3878,3352 3592,3361 3174,3396 2907,3408 2640,3421 2517,3412 2423,3471 2329,3531 2263,3654 2203,3792 2143,3930 2099,4094 2172,4188 Z M 7898,11828 C 7930,12167 7993,12525 7967,12723 7945,12921 7835,12956 7732,13009 7628,13063 7530,13132 7436,13204 7534,12805 7609,12403 7640,12126 7672,11850 7656,11702 7688,11510 7716,11319 7788,11086 7826,11130 7864,11171 7867,11491 7898,11828 Z M 12855,13119 C 13009,12896 13191,12657 13383,12431 13320,12588 13257,12749 13188,12953 13122,13157 13050,13408 12974,13509 12902,13613 12826,13572 12738,13588 12650,13606 12547,13682 12559,13616 12572,13553 12701,13346 12855,13119 Z"/>
         <path fill="rgb(21,29,68)" stroke="none" d="M 3621,1366 C 3586,1287 3529,1212 3463,1155 3394,1095 3316,1051 3231,1029 3146,1007 3055,1001 2983,1014 2907,1026 2844,1055 2797,1095 2750,1133 2722,1187 2712,1240 2706,1293 2715,1353 2725,1391 2734,1429 2744,1441 2753,1479 2762,1517 2772,1573 2753,1633 2734,1696 2684,1759 2618,1815 2552,1875 2467,1925 2385,1953 2304,1982 2222,1988 2131,1969 1952,1938 1738,1790 1615,1630 1493,1469 1477,1306 1534,1139 1565,1055 1612,967 1684,891 1757,819 1857,759 2002,687 2146,615 2335,530 2555,502 2775,473 3030,502 3265,580 L 2718,-539 C 2656,-479 2590,-422 2492,-356 2395,-290 2269,-212 2153,-162 2036,-108 1936,-80 1798,-45 1662,-8 1496,36 1345,93 1194,153 1059,225 940,319 820,414 716,530 632,656 547,781 481,916 440,1055 399,1193 380,1337 383,1479 386,1620 415,1762 462,1897 512,2035 588,2170 679,2293 770,2415 880,2522 996,2607 1112,2692 1241,2755 1383,2799 1524,2843 1681,2865 1851,2865 2021,2865 2200,2840 2379,2793 2558,2745 2740,2673 2895,2585 3049,2497 3181,2393 3287,2280 3397,2167 3489,2041 3548,1928 3611,1815 3639,1711 3649,1617 3671,1529 3655,1444 3621,1366 Z M 3313,1947 C 3234,2063 3127,2173 3020,2265 2913,2353 2803,2422 2640,2491 2473,2563 2253,2639 1999,2661 1744,2683 1452,2651 1210,2507 965,2362 767,2107 669,1859 572,1611 575,1366 632,1158 685,951 789,784 908,646 1028,508 1163,401 1354,319 1546,238 1791,178 1977,124 2162,71 2285,18 2388,-39 2492,-92 2577,-149 2656,-215 L 2910,307 C 2844,294 2778,288 2709,288 2634,288 2555,294 2476,313 2319,344 2150,407 1977,483 1807,555 1637,637 1505,794 1373,951 1282,1180 1304,1397 1326,1614 1468,1812 1653,1960 1838,2107 2071,2205 2285,2186 2502,2167 2706,2032 2825,1897 2945,1762 2983,1620 2967,1510 2954,1400 2891,1315 2913,1268 2935,1218 3045,1202 3140,1221 3234,1237 3309,1290 3369,1356 3426,1422 3467,1504 3457,1605 3451,1705 3394,1831 3313,1947 Z"/>
         <path fill="rgb(162,195,208)" stroke="none" d="M 3457,1601 C 3448,1702 3394,1828 3313,1947 3234,2063 3127,2173 3020,2261 2913,2349 2803,2419 2640,2491 2473,2563 2253,2639 1999,2661 1744,2683 1452,2651 1210,2507 965,2362 767,2107 669,1859 572,1608 578,1366 632,1158 685,954 789,784 908,649 1028,511 1163,404 1354,322 1546,241 1791,181 1977,128 2162,74 2285,21 2388,-36 2492,-89 2577,-146 2656,-212 L 2910,310 C 2844,297 2778,291 2709,291 2634,291 2555,300 2476,316 2319,348 2150,414 1977,486 1807,558 1637,643 1505,800 1373,957 1282,1187 1304,1403 1326,1620 1468,1818 1653,1966 1838,2114 2071,2211 2285,2192 2502,2173 2706,2041 2825,1903 2945,1765 2983,1627 2967,1517 2954,1407 2891,1325 2913,1275 2935,1227 3045,1212 3140,1227 3234,1246 3309,1297 3369,1363 3429,1419 3467,1501 3457,1601 Z"/>
         <path fill="rgb(21,29,68)" stroke="none" d="M 5805,1542 L 7141,1300 C 7122,1262 7106,1224 7087,1174 7068,1124 7046,1058 7018,963 6962,778 6877,486 6848,68 6823,-347 6858,-881 6949,-1403 6861,-1394 6773,-1381 6531,-1356 6289,-1324 5890,-1277 5440,-1180 4991,-1082 4494,-941 4007,-765 L 4246,-77 4824,-243 C 4790,-171 4761,-102 4746,-42 4736,-11 4727,14 4717,43 L 4246,43 3787,973 C 3903,967 4020,957 4089,954 4155,951 4167,948 4183,948 4199,948 4211,945 4227,945 4177,970 4127,998 4039,1033 3951,1064 3825,1105 3702,1146 L 3819,2117 C 3856,2111 3897,2104 3947,2089 4001,2073 4064,2051 4155,2016 4337,1947 4626,1831 4859,1630 5088,1432 5261,1149 5349,844 L 5862,800 C 5868,857 5871,910 5871,979 5871,1011 5871,1048 5868,1086 5855,1215 5830,1378 5805,1542 Z M 5192,656 C 5139,841 5057,1017 4959,1174 4862,1331 4752,1469 4589,1586 4425,1702 4215,1803 3991,1859 L 3922,1287 C 4067,1240 4208,1180 4309,1130 4406,1077 4460,1029 4501,989 4545,948 4576,907 4595,857 4614,803 4623,734 4614,671 4545,690 4479,709 4397,725 4315,737 4221,744 4123,750 L 4369,253 4821,253 C 4856,222 4884,181 4909,118 4931,55 4956,-36 4988,-108 5022,-180 5066,-240 5076,-306 5085,-375 5063,-448 5022,-507 L 4375,-322 4268,-630 C 4689,-762 5110,-894 5519,-985 5928,-1073 6317,-1120 6710,-1164 6669,-878 6647,-586 6641,-309 6638,-33 6650,231 6685,470 6720,712 6779,932 6861,1146 L 6047,1293 C 6060,1209 6072,1121 6072,1004 6072,885 6056,737 6044,586 L 5192,656 5192,656 Z"/>
         <path fill="rgb(21,29,68)" stroke="none" d="M 6016,-366 C 5997,-463 5953,-564 5893,-652 5814,-589 5748,-514 5670,-410 5594,-303 5506,-165 5450,-55 5393,55 5362,134 5343,219 L 6044,137 C 6031,65 6025,-11 6025,-92 6025,-177 6034,-268 6016,-366 Z M 5821,-152 C 5821,-127 5821,-86 5821,-45 L 5667,-26 C 5714,-111 5767,-190 5821,-272 5821,-250 5821,-224 5821,-209 5824,-190 5821,-177 5821,-152 Z"/>
         <path fill="rgb(21,29,68)" stroke="none" d="M 11198,-1504 L 10013,-1548 C 9991,-1516 9973,-1485 9919,-1409 9866,-1331 9781,-1208 9690,-1092 9599,-976 9501,-869 9397,-765 9247,-925 9099,-1082 9020,-1214 8942,-1346 8942,-1450 8935,-1554 L 7436,-1504 C 7675,-1126 7672,624 7662,797 7653,970 7618,1086 7568,1196 L 8624,1196 C 8602,1111 8577,1026 8555,935 8533,844 8508,747 8495,681 8483,615 8489,577 8489,542 8492,508 8492,480 8492,448 L 8495,-140 9228,640 10020,-155 C 10020,-114 10017,-74 10017,-26 10017,27 10017,87 10020,159 10026,294 10035,476 9995,662 9954,847 9856,1039 9727,1202 L 11173,1205 C 11120,1117 11079,1023 11054,904 11026,775 11035,-1284 11198,-1504 Z M 10868,992 L 10086,992 C 10130,916 10164,838 10186,747 10208,656 10218,555 10224,360 10230,168 10208,-121 10233,-407 10233,-485 10249,-564 10221,-583 10196,-598 10130,-561 10079,-510 L 9231,341 8590,-338 C 8549,-382 8527,-441 8483,-470 8439,-498 8392,-504 8357,-479 8319,-457 8291,-400 8291,-353 L 8288,445 C 8288,489 8285,533 8285,583 8285,615 8288,646 8291,684 8304,775 8332,885 8360,992 L 7829,992 C 7851,945 7867,891 7867,690 L 7867,652 C 7867,420 7851,5 7845,-272 7842,-551 7788,-1243 7757,-1309 L 8753,-1340 C 8756,-1315 8759,-1287 8772,-1249 8788,-1211 8816,-1161 8869,-1089 8976,-941 9184,-702 9391,-460 9542,-614 9690,-768 9812,-913 9935,-1060 10029,-1199 10120,-1337 L 10922,-1309 C 10821,-1155 10850,351 10840,552 10831,747 10821,885 10868,992 Z"/>
         <path fill="rgb(162,195,208)" stroke="none" d="M 10868,992 L 10086,992 C 10130,916 10164,838 10186,747 10208,656 10218,555 10224,360 10230,168 10208,-121 10233,-407 10233,-485 10249,-564 10221,-583 10196,-598 10130,-561 10079,-510 L 9231,341 8590,-338 C 8549,-382 8527,-441 8483,-470 8439,-498 8392,-504 8357,-479 8319,-457 8291,-400 8291,-353 L 8288,445 C 8288,489 8285,533 8285,583 8285,615 8288,646 8291,684 8304,775 8332,885 8360,992 L 7829,992 C 7851,945 7867,891 7867,690 L 7867,652 C 7867,420 7851,5 7845,-272 7842,-551 7788,-1243 7757,-1309 L 8753,-1340 C 8756,-1315 8759,-1287 8772,-1249 8788,-1211 8816,-1161 8869,-1089 8976,-941 9184,-702 9391,-460 9542,-614 9690,-768 9812,-913 9935,-1060 10029,-1199 10120,-1337 L 10922,-1309 C 10821,-1155 10850,351 10840,552 10831,747 10821,885 10868,992 Z"/>
         <path fill="rgb(21,29,68)" stroke="none" d="M 13175,-363 C 13292,-388 13446,-366 13590,-328 13735,-290 13873,-237 13999,-158 14128,-80 14244,24 14332,115 14420,206 14480,291 14524,382 L 15165,-404 C 15074,-432 14986,-466 14904,-501 14825,-536 14750,-573 14511,-708 14272,-840 13864,-1067 13449,-1142 13037,-1214 12616,-1133 12314,-969 12012,-806 11824,-558 11708,-275 11591,5 11541,322 11626,646 11711,970 11924,1303 12245,1513 12562,1727 12990,1821 13377,1834 13763,1847 14109,1784 14426,1642 L 14247,800 C 14194,869 14118,919 13986,963 13854,1004 13666,1042 13505,1048 13345,1055 13213,1033 13106,992 12999,951 12918,888 12855,813 12789,734 12742,640 12720,539 L 13889,784 14015,90 12927,-180 C 12974,-272 13056,-341 13175,-363 Z M 13779,244 L 13725,542 12531,294 C 12512,341 12503,395 12503,451 12503,495 12509,542 12522,596 12550,712 12613,850 12723,973 12833,1095 12993,1202 13235,1237 13477,1275 13801,1243 14099,1146 L 14184,1510 C 13927,1601 13650,1649 13383,1649 13314,1649 13241,1645 13172,1639 12842,1608 12540,1498 12320,1344 12100,1190 11959,989 11874,794 11789,599 11761,414 11783,216 11805,21 11877,-187 11975,-353 12069,-520 12188,-652 12320,-752 12452,-853 12594,-922 12808,-954 13024,-985 13311,-982 13568,-922 13826,-859 14055,-746 14231,-646 14404,-548 14527,-470 14618,-416 14706,-363 14766,-338 14825,-316 L 14527,52 C 14486,-1 14439,-48 14363,-114 14288,-177 14191,-256 14062,-328 13933,-400 13776,-470 13600,-504 13424,-536 13223,-536 13081,-504 12936,-473 12848,-407 12779,-328 12710,-246 12660,-149 12632,-45 L 13779,244 13779,244 Z"/>
         <path fill="rgb(162,195,208)" stroke="none" d="M 14825,-312 L 14527,55 C 14486,2 14439,-45 14363,-111 14288,-174 14191,-253 14062,-328 13933,-400 13776,-470 13600,-504 13424,-536 13223,-536 13081,-504 12936,-473 12848,-410 12779,-328 12710,-246 12660,-149 12632,-45 L 13773,241 13719,539 12525,291 C 12506,338 12496,392 12496,448 12496,495 12503,539 12515,593 12544,709 12606,847 12716,970 12826,1092 12987,1196 13229,1234 13471,1271 13795,1240 14093,1143 L 14178,1507 C 13920,1598 13644,1645 13377,1645 13307,1645 13235,1642 13166,1636 12836,1605 12534,1495 12314,1341 12094,1187 11953,985 11868,791 11783,596 11758,410 11777,212 11799,18 11871,-187 11968,-356 12063,-526 12182,-655 12314,-756 12446,-856 12588,-925 12801,-957 13018,-988 13304,-985 13562,-922 13820,-862 14049,-746 14225,-649 14398,-551 14521,-473 14612,-419 14706,-363 14766,-334 14825,-312 Z"/>
         <path fill="rgb(21,29,68)" stroke="none" d="M 17516,1768 C 17412,1639 17249,1570 17095,1576 16944,1583 16799,1661 16714,1743 16630,1821 16601,1900 16611,1975 16507,1944 16406,1913 16300,1872 16193,1828 16086,1771 15982,1718 16089,1359 16221,1007 16331,753 16441,498 16529,341 16652,231 16774,121 16934,58 17098,46 16812,-30 16523,-105 16259,-224 15995,-344 15756,-504 15517,-664 15555,-523 15567,-375 15548,-224 15526,-74 15473,77 15404,278 15331,480 15243,731 15127,985 15011,1240 14866,1504 14722,1696 14580,1887 14442,2013 14285,2107 14439,2092 14599,2101 14763,2133 14926,2167 15096,2230 15294,2312 15495,2393 15724,2494 15973,2598 16221,2698 16488,2805 16724,2837 16963,2868 17173,2827 17334,2720 17494,2613 17607,2437 17638,2261 17670,2079 17623,1894 17516,1768 Z M 17362,2419 C 17302,2503 17217,2566 17129,2607 17038,2648 16944,2670 16762,2635 16579,2598 16312,2503 16029,2397 15750,2287 15454,2161 15247,2079 15039,1997 14920,1960 14797,1931 14945,1749 15074,1551 15181,1334 15287,1117 15379,879 15467,649 15555,417 15646,194 15696,46 15743,-102 15753,-171 15750,-240 L 16507,77 C 16485,99 16460,124 16438,165 16410,203 16381,256 16337,338 16252,498 16127,769 16017,1029 15907,1290 15819,1545 15740,1806 15856,1884 15979,1953 16130,2023 16281,2089 16460,2155 16586,2180 16711,2205 16784,2192 16840,2151 16799,2067 16802,1950 16862,1875 16919,1803 17032,1768 17126,1774 17220,1781 17299,1821 17356,1887 17415,1953 17450,2041 17453,2139 17453,2230 17422,2334 17362,2419 Z"/>
         <path fill="rgb(162,195,208)" stroke="none" d="M 17453,2133 C 17453,2230 17422,2337 17365,2422 17305,2507 17220,2569 17132,2610 17041,2651 16947,2673 16765,2639 16582,2601 16315,2507 16036,2400 15753,2290 15460,2164 15253,2082 15045,2001 14926,1963 14803,1935 14951,1752 15080,1554 15187,1337 15294,1121 15382,882 15473,652 15561,420 15649,197 15699,49 15750,-99 15759,-168 15753,-237 L 16510,80 C 16488,102 16466,128 16441,165 16416,203 16384,256 16340,338 16256,498 16127,769 16020,1029 15910,1290 15819,1545 15743,1806 15856,1884 15979,1953 16130,2023 16281,2089 16463,2155 16586,2180 16711,2205 16780,2192 16840,2151 16799,2067 16806,1950 16862,1875 16922,1803 17032,1768 17126,1774 17220,1777 17299,1821 17359,1884 17412,1944 17450,2032 17453,2133 Z"/>
        </g>
       </g>
      </g>
     </g>
    </g>
   </g>
  </g>
 </g>
</svg>